# xmcd
#
# Track frame offsets: 
#        150
#        21891
#        41474
#        62994
#        86288
#        103379
#        118721
#        139184
#        166254
#        193541
#        213028
#        244686
#        262678
#        283532
#        298129
#
# Disc length: 4266 seconds
#
# Revision: 2
# Processed by: cddbd v1.5.2PL0 Copyright (c) Steve Scherf et al.
# Submitted via: ExactAudioCopy v0.99pb5
#
DISCID=d410a80f
DTITLE=Various Artist - Chill Out In Paris 4
DYEAR=2005
DGENRE=Ambient
TTITLE0=Des'ree - I'm Kissing You
TTITLE1=Hardage Feat. Jocelyn Brown - Beautiful Day
TTITLE2=Doctor Jazz's Universal Remedy - Ciao Ciao Goodbye
TTITLE3=Stephane Pompougnac Feat Clementine - Morenito [Bossa Mix]
TTITLE4=Soulalchemy - Party Time
TTITLE5=Dzihan and Kamien - Colores
TTITLE6=Hardage Feat. Mark King - The Genius Of Love
TTITLE7=Nicola Conte - Arabesque [Vocal Version Performed By Micatone]
TTITLE8=Tosca - Dave Dudley
TTITLE9=Yoko - Feel The Sky [Ibiza Nights Mix]
TTITLE10=Djamel Ben - Yelles - She Left Home
TTITLE11=Duke B - The Truth
TTITLE12=Tirovi Umoto - Mediterranean Rain [Rmx]
TTITLE13=Giorgio Li Calzi - I Love You
TTITLE14=Gioaria - Psalmus Ode
EXTD=
EXTT0=
EXTT1=
EXTT2=
EXTT3=
EXTT4=
EXTT5=
EXTT6=
EXTT7=
EXTT8=
EXTT9=
EXTT10=
EXTT11=
EXTT12=
EXTT13=
EXTT14=
PLAYORDER=
